PathFileType	4	(X/Y/Z) flx_2kg_3.trc																										
DataRate	CameraRate	NumFrames	NumMarkers	Units	OrigDataRate	OrigDataStartFrame	OrigNumFrames																					
100	100	49	9	mm	100	291	774																					
Frame#	Time	gu			centelbow			EpL			centpxt8			centijc7			ij			ts			aa			ai		
		X1	Y1	Z1	X2	Y2	Z2	X3	Y3	Z3	X4	Y4	Z4	X5	Y5	Z5	X6	Y6	Z6	X7	Y7	Z7	X8	Y8	Z8	X9	Y9	Z9  
290	2.9	-97.824	61.643	106.849	12.986	263.091	196.981	-12.892	277.912	184.731	-46.816	-153.158	-8.669	-46.816	31.938	-8.669	0	0	0	-142.456	-20.539	57.037	-126.766	82.484	115.045	-110.236	-73.085	152.36
291	2.91	-98.024	61.994	106.729	11.035	264.956	195.593	-14.958	279.478	183.229	-46.816	-153.158	-8.669	-46.816	31.938	-8.669	0	0	0	-141.82	-20.36	57.075	-127.032	82.992	114.733	-109.535	-72.312	152.702
292	2.92	-97.988	61.783	106.38	9.549	266.054	194.095	-16.528	280.317	181.606	-46.816	-153.158	-8.669	-46.816	31.938	-8.669	0	0	0	-141.186	-20.529	57.112	-127.186	83.138	114.401	-108.858	-71.907	153.033
293	2.93	-97.769	61.379	105.908	8.385	266.796	192.622	-17.758	280.829	180.01	-46.816	-153.158	-8.669	-46.816	31.938	-8.669	0	0	0	-140.849	-21.1	57.209	-127.546	82.872	114.108	-108.482	-71.913	153.417
294	2.94	-97.625	61.303	105.394	7.125	267.818	191.204	-19.085	281.623	178.482	-46.816	-153.158	-8.669	-46.816	31.938	-8.669	0	0	0	-140.691	-21.707	57.295	-128.107	82.578	113.783	-108.233	-71.928	153.783
295	2.95	-97.882	61.434	105.012	5.419	269.011	190.012	-20.869	282.588	177.203	-46.816	-153.158	-8.669	-46.816	31.938	-8.669	0	0	0	-140.359	-21.94	57.223	-128.595	82.66	113.304	-107.74	-71.541	153.977
296	2.96	-98.617	61.405	104.856	3.274	269.986	189.094	-23.099	283.339	176.226	-46.816	-153.158	-8.669	-46.816	31.938	-8.669	0	0	0	-139.621	-21.758	57.068	-128.76	83.138	112.778	-106.826	-70.747	154.074
297	2.97	-99.467	61.218	104.786	1.086	270.787	188.179	-25.381	283.916	175.274	-46.816	-153.158	-8.669	-46.816	31.938	-8.669	0	0	0	-138.582	-21.474	56.981	-128.608	83.694	112.344	-105.648	-69.881	154.233
298	2.98	-99.966	61.029	104.716	-0.73	271.597	187.165	-27.291	284.499	174.224	-46.816	-153.158	-8.669	-46.816	31.938	-8.669	0	0	0	-137.675	-21.614	57.085	-128.469	83.813	112.085	-104.678	-69.466	154.588
299	2.99	-99.972	60.951	104.645	-2.115	272.52	186.172	-28.759	285.192	173.175	-46.816	-153.158	-8.669	-46.816	31.938	-8.669	0	0	0	-137.242	-22.392	57.507	-128.679	83.29	112.122	-104.294	-69.711	155.287
300	3	-99.702	61.14	104.418	-3.327	273.712	185.1	-30.043	286.149	172.023	-46.816	-153.158	-8.669	-46.816	31.938	-8.669	0	0	0	-137.126	-23.262	58.107	-129.204	82.671	112.331	-104.294	-70.05	156.181
301	3.01	-99.469	61.532	103.899	-4.619	275.085	183.79	-31.396	287.288	170.618	-46.816	-153.158	-8.669	-46.816	31.938	-8.669	0	0	0	-136.935	-23.568	58.431	-129.75	82.615	112.267	-104.177	-69.801	156.793
302	3.02	-99.413	61.815	103.298	-6.065	276.293	182.481	-32.887	288.273	169.197	-46.816	-153.158	-8.669	-46.816	31.938	-8.669	0	0	0	-136.559	-23.265	58.279	-130.186	83.166	111.727	-103.791	-68.916	156.909
303	3.03	-99.46	61.912	102.897	-7.619	277.261	181.473	-34.476	289.026	168.068	-46.816	-153.158	-8.669	-46.816	31.938	-8.669	0	0	0	-136.19	-22.832	58.011	-130.622	83.834	111.078	-103.398	-67.912	156.895
304	3.04	-99.55	61.892	102.717	-9.189	278.055	180.774	-36.085	289.613	167.267	-46.816	-153.158	-8.669	-46.816	31.938	-8.669	0	0	0	-135.942	-22.901	58.05	-131.109	83.978	110.761	-103.197	-67.458	157.187
305	3.05	-99.774	61.713	102.759	-10.737	278.587	180.362	-37.678	289.959	166.786	-46.816	-153.158	-8.669	-46.816	31.938	-8.669	0	0	0	-135.709	-23.568	58.281	-131.538	83.501	110.66	-103.051	-67.651	157.658
306	3.06	-100.223	61.594	102.965	-12.359	279.109	180.11	-39.352	290.308	166.494	-46.816	-153.158	-8.669	-46.816	31.938	-8.669	0	0	0	-135.393	-24.154	58.326	-131.897	83.094	110.389	-102.759	-67.768	157.917
307	3.07	-100.825	61.974	103.005	-14.168	280.166	179.602	-41.228	291.18	165.969	-46.816	-153.158	-8.669	-46.816	31.938	-8.669	0	0	0	-135.025	-24.131	58.202	-132.281	83.289	109.954	-102.323	-67.252	157.986
308	3.08	-101.408	62.75	102.705	-16.066	281.685	178.657	-43.203	292.493	165.012	-46.816	-153.158	-8.669	-46.816	31.938	-8.669	0	0	0	-134.63	-23.754	58.137	-132.664	83.838	109.566	-101.84	-66.363	158.111
309	3.09	-101.808	63.305	102.346	-17.748	282.95	177.672	-44.947	293.56	163.996	-46.816	-153.158	-8.669	-46.816	31.938	-8.669	0	0	0	-134.227	-23.544	58.168	-132.958	84.219	109.26	-101.398	-65.656	158.34
310	3.1	-101.968	63.333	102.253	-19.048	283.572	177.11	-46.277	294.017	163.365	-46.816	-153.158	-8.669	-46.816	31.938	-8.669	0	0	0	-133.9	-23.749	58.32	-133.214	84.174	109.083	-101.129	-65.412	158.699
311	3.11	-101.955	63.095	102.447	-20.11	283.827	177.032	-47.337	294.135	163.183	-46.816	-153.158	-8.669	-46.816	31.938	-8.669	0	0	0	-133.675	-24.23	58.605	-133.51	83.833	109.075	-101.063	-65.506	159.196
312	3.12	-101.824	62.964	102.684	-21.096	284.16	177.111	-48.312	294.336	163.14	-46.816	-153.158	-8.669	-46.816	31.938	-8.669	0	0	0	-133.422	-24.643	58.84	-133.786	83.54	109.05	-101.014	-65.571	159.638
313	3.13	-101.575	63.055	102.674	-22.013	284.731	176.932	-49.223	294.766	162.85	-46.816	-153.158	-8.669	-46.816	31.938	-8.669	0	0	0	-133.052	-24.861	58.919	-133.971	83.435	108.878	-100.824	-65.44	159.915
314	3.14	-101.394	63.183	102.401	-22.975	285.337	176.446	-50.194	295.228	162.278	-46.816	-153.158	-8.669	-46.816	31.938	-8.669	0	0	0	-132.594	-25.012	58.944	-134.08	83.386	108.668	-100.504	-65.249	160.122
315	3.15	-101.591	63.151	102.081	-24.241	285.738	175.948	-51.473	295.495	161.713	-46.816	-153.158	-8.669	-46.816	31.938	-8.669	0	0	0	-132.057	-25.114	58.984	-134.112	83.36	108.522	-100.071	-65.052	160.312
316	3.16	-102.138	63.005	101.807	-25.777	285.966	175.574	-53.016	295.604	161.273	-46.816	-153.158	-8.669	-46.816	31.938	-8.669	0	0	0	-131.46	-25.023	59.036	-134.078	83.506	108.428	-99.546	-64.697	160.491
317	3.17	-102.638	62.885	101.514	-27.229	286.195	175.206	-54.465	295.723	160.823	-46.816	-153.158	-8.669	-46.816	31.938	-8.669	0	0	0	-130.96	-24.782	59.137	-134.102	83.805	108.369	-99.101	-64.189	160.713
318	3.18	-102.812	62.843	101.214	-28.407	286.521	174.808	-55.628	295.934	160.322	-46.816	-153.158	-8.669	-46.816	31.938	-8.669	0	0	0	-130.759	-24.633	59.293	-134.342	84.025	108.338	-98.954	-63.767	160.991
319	3.19	-102.726	62.856	101.01	-29.446	286.943	174.491	-56.646	296.227	159.883	-46.816	-153.158	-8.669	-46.816	31.938	-8.669	0	0	0	-130.828	-24.65	59.419	-134.777	84.076	108.285	-99.079	-63.537	161.23
320	3.2	-102.616	62.918	100.908	-30.566	287.436	174.291	-57.746	296.581	159.559	-46.816	-153.158	-8.669	-46.816	31.938	-8.669	0	0	0	-130.927	-24.666	59.441	-135.232	84.11	108.166	-99.232	-63.345	161.348
321	3.21	-102.653	63.072	100.803	-31.872	288.005	174.148	-59.036	297.01	159.301	-46.816	-153.158	-8.669	-46.816	31.938	-8.669	0	0	0	-130.902	-24.52	59.369	-135.6	84.292	107.976	-99.249	-63.002	161.364
322	3.22	-102.799	63.211	100.663	-33.218	288.506	174.047	-60.369	297.383	159.098	-46.816	-153.158	-8.669	-46.816	31.938	-8.669	0	0	0	-130.723	-24.231	59.229	-135.833	84.62	107.709	-99.091	-62.499	161.311
323	3.23	-102.947	63.057	100.617	-34.363	288.636	174.065	-61.494	297.412	159.019	-46.816	-153.158	-8.669	-46.816	31.938	-8.669	0	0	0	-130.462	-24.035	59.071	-135.938	84.861	107.408	-98.844	-62.087	161.238
324	3.24	-103.136	62.678	100.688	-35.306	288.483	174.14	-62.414	297.181	159.01	-46.816	-153.158	-8.669	-46.816	31.938	-8.669	0	0	0	-130.327	-24.12	58.958	-136.078	84.82	107.166	-98.743	-61.991	161.203
325	3.25	-103.398	62.554	100.657	-36.185	288.571	174.025	-63.281	297.198	158.832	-46.816	-153.158	-8.669	-46.816	31.938	-8.669	0	0	0	-130.435	-24.3	58.844	-136.398	84.668	106.959	-98.905	-62.044	161.151
326	3.26	-103.644	62.827	100.433	-37.005	289.045	173.706	-64.101	297.602	158.473	-46.816	-153.158	-8.669	-46.816	31.938	-8.669	0	0	0	-130.654	-24.313	58.651	-136.813	84.672	106.704	-99.176	-61.962	161.01
327	3.27	-103.775	63.123	100.259	-37.67	289.502	173.519	-64.77	297.998	158.259	-46.816	-153.158	-8.669	-46.816	31.938	-8.669	0	0	0	-130.759	-24.217	58.453	-137.117	84.781	106.45	-99.322	-61.774	160.858
328	3.28	-103.715	63.234	100.284	-38.113	289.74	173.604	-65.215	298.183	158.32	-46.816	-153.158	-8.669	-46.816	31.938	-8.669	0	0	0	-130.606	-24.18	58.356	-137.162	84.834	106.292	-99.205	-61.64	160.808
329	3.29	-103.53	63.326	100.351	-38.432	289.964	173.713	-65.541	298.353	158.41	-46.816	-153.158	-8.669	-46.816	31.938	-8.669	0	0	0	-130.261	-24.191	58.362	-137.02	84.839	106.233	-98.901	-61.549	160.864
330	3.3	-103.436	63.475	100.356	-38.813	290.253	173.704	-65.928	298.586	158.384	-46.816	-153.158	-8.669	-46.816	31.938	-8.669	0	0	0	-129.98	-24.167	58.422	-136.949	84.879	106.227	-98.668	-61.424	160.975
331	3.31	-103.5	63.539	100.395	-39.24	290.427	173.722	-66.359	298.718	158.384	-46.816	-153.158	-8.669	-46.816	31.938	-8.669	0	0	0	-129.894	-24.089	58.493	-137.064	84.967	106.246	-98.628	-61.258	161.092
332	3.32	-103.61	63.491	100.496	-39.587	290.444	173.829	-66.705	298.709	158.476	-46.816	-153.158	-8.669	-46.816	31.938	-8.669	0	0	0	-129.904	-23.963	58.527	-137.259	85.095	106.245	-98.666	-61.063	161.16
333	3.33	-103.695	63.476	100.546	-39.855	290.474	173.898	-66.972	298.721	158.534	-46.816	-153.158	-8.669	-46.816	31.938	-8.669	0	0	0	-129.911	-23.799	58.492	-137.44	85.259	106.183	-98.692	-60.837	161.152
334	3.34	-103.761	63.567	100.509	-40.086	290.605	173.882	-67.202	298.835	158.506	-46.816	-153.158	-8.669	-46.816	31.938	-8.669	0	0	0	-129.893	-23.647	58.409	-137.574	85.416	106.064	-98.719	-60.625	161.105
335	3.35	-103.816	63.711	100.436	-40.275	290.778	173.834	-67.386	298.996	158.444	-46.816	-153.158	-8.669	-46.816	31.938	-8.669	0	0	0	-129.833	-23.548	58.318	-137.63	85.529	105.924	-98.755	-60.47	161.063
336	3.36	-103.928	63.836	100.352	-40.479	290.923	173.768	-67.583	299.135	158.362	-46.816	-153.158	-8.669	-46.816	31.938	-8.669	0	0	0	-129.823	-23.495	58.254	-137.708	85.594	105.817	-98.877	-60.38	161.052
337	3.37	-104.155	63.917	100.28	-40.759	291.01	173.726	-67.86	299.218	158.312	-46.816	-153.158	-8.669	-46.816	31.938	-8.669	0	0	0	-129.993	-23.484	58.242	-137.954	85.601	105.803	-99.175	-60.372	161.078
338	3.38	-104.306	63.957	100.269	-40.898	291.013	173.817	-68.003	299.229	158.413	-46.816	-153.158	-8.669	-46.816	31.938	-8.669	0	0	0	-130.22	-23.455	58.302	-138.238	85.597	105.927	-99.485	-60.407	161.139
